<svg 
 xmlns="http://www.w3.org/2000/svg"
 xmlns:xlink="http://www.w3.org/1999/xlink"
 width="16px" height="16px">
<path fill-rule="evenodd"  fill="rgb(216, 35, 42)"
 d="M8.000,16.000 C3.582,16.000 0.000,12.418 0.000,8.000 C0.000,3.582 3.582,-0.000 8.000,-0.000 C12.418,-0.000 16.000,3.582 16.000,8.000 C16.000,12.418 12.418,16.000 8.000,16.000 ZM8.000,2.000 C4.686,2.000 2.000,4.686 2.000,8.000 C2.000,11.313 4.686,14.000 8.000,14.000 C11.314,14.000 14.000,11.313 14.000,8.000 C14.000,4.686 11.314,2.000 8.000,2.000 Z"/>
<path fill-rule="evenodd"  fill="rgb(87, 92, 103)"
 d="M10.790,8.345 L6.527,10.932 C6.230,11.113 5.986,10.974 5.986,10.625 L5.986,5.409 C5.986,5.058 6.230,4.920 6.527,5.100 L10.790,7.688 C11.088,7.869 11.088,8.164 10.790,8.345 Z"/>
</svg>